<?xml version="1.0" standalone="no"?>
<!DOCTYPE svg PUBLIC "-//W3C//DTD SVG 20010904//EN"
 "http://www.w3.org/TR/2001/REC-SVG-20010904/DTD/svg10.dtd">
<svg version="1.0" xmlns="http://www.w3.org/2000/svg"
 width="260.000000pt" height="280.000000pt" viewBox="0 0 260.000000 280.000000"
 preserveAspectRatio="xMidYMid meet">

<g transform="translate(0.000000,280.000000) scale(0.100000,-0.100000)"
fill="#000000" stroke="none">
<path d="M1401 2575 c-71 -60 -63 -167 16 -214 16 -10 15 -13 -12 -36 -55 -47
-168 -96 -231 -102 -49 -4 -67 0 -103 19 -47 25 -68 55 -102 150 -29 81 -57
118 -114 147 -46 24 -59 26 -180 25 -115 0 -140 -3 -215 -28 -47 -16 -110 -41
-141 -56 -109 -55 -333 -219 -319 -233 3 -3 41 24 85 60 204 164 401 246 600
247 90 1 106 -2 157 -27 64 -31 83 -57 122 -160 50 -134 87 -162 205 -155 88
5 178 43 249 103 33 29 48 36 67 31 45 -11 169 16 370 81 291 95 378 97 466
10 85 -84 139 -257 139 -443 0 -129 -20 -223 -76 -348 -104 -237 -117 -276
-122 -377 -4 -87 -2 -102 21 -151 26 -58 69 -97 126 -117 43 -14 161 -14 181
0 11 8 0 9 -42 5 -161 -17 -262 61 -275 212 -7 81 15 165 92 343 95 220 109
277 109 429 0 236 -73 428 -188 495 -90 53 -162 46 -426 -41 -195 -63 -278
-84 -342 -84 l-47 0 35 51 c28 42 34 60 34 103 0 39 -5 57 -18 69 -28 26 -85
21 -121 -8z m115 -10 c22 -33 13 -85 -24 -144 -35 -57 -60 -63 -96 -21 -40 48
-37 111 8 156 43 43 87 46 112 9z"/>
<path d="M1990 2301 c-19 -4 -48 -15 -65 -23 -69 -37 -139 -143 -133 -201 4
-45 41 -47 115 -8 31 17 59 29 61 26 3 -3 -3 -60 -12 -127 -10 -68 -21 -174
-23 -235 -6 -112 -6 -113 17 -113 14 0 47 25 94 73 120 120 186 273 186 428 0
62 -4 82 -23 110 -38 58 -133 88 -217 70z m0 -111 c0 -6 -8 -13 -17 -17 -10
-3 -31 -15 -46 -26 -41 -28 -48 -10 -9 24 32 28 72 39 72 19z m106 -56 c11
-44 -3 -175 -26 -241 -26 -76 -50 -85 -50 -20 0 77 30 271 43 279 20 13 26 9
33 -18z"/>
<path d="M654 2196 c-170 -63 -284 -174 -284 -276 0 -26 7 -56 16 -69 26 -36
90 -61 162 -61 87 0 128 -19 141 -65 5 -20 8 -42 5 -48 -2 -7 -44 -27 -93 -45
-183 -69 -270 -153 -213 -205 53 -48 225 25 301 127 19 25 48 50 64 56 39 13
39 13 37 -12 -5 -55 2 -81 26 -105 22 -22 32 -25 77 -21 68 6 138 41 188 95
44 48 48 67 18 84 -45 23 -87 15 -128 -25 -46 -45 -75 -45 -79 -1 -2 27 4 34
54 65 81 50 154 131 154 169 0 21 -7 35 -23 46 -50 33 -139 -24 -223 -141 -47
-66 -82 -87 -64 -38 15 38 12 91 -6 108 -8 9 -27 19 -42 22 -78 17 -103 26
-117 40 -54 54 48 119 129 83 37 -17 52 0 82 96 23 74 24 87 12 112 -12 26
-18 28 -73 30 -42 2 -78 -4 -121 -21z m340 -420 c-6 -15 -54 -40 -62 -31 -3 2
3 14 13 25 21 23 57 28 49 6z m-399 -242 c-39 -32 -85 -57 -85 -45 0 10 90 71
105 71 6 -1 -3 -12 -20 -26z"/>
<path d="M1612 1993 c-17 -3 -54 -42 -78 -81 -1 -2 -16 4 -33 12 -44 23 -66
20 -95 -15 -27 -31 -36 -92 -16 -104 27 -17 -104 -133 -136 -121 -18 7 -12 50
14 101 19 39 34 48 48 30 9 -12 13 -13 22 -3 22 27 43 98 40 134 -3 34 -6 39
-31 42 -86 10 -191 -148 -204 -309 -3 -37 -3 -78 1 -93 21 -83 138 -35 229 94
l17 25 -1 -35 c-2 -71 1 -90 20 -109 25 -25 55 -17 85 23 36 48 48 92 55 200
5 88 9 100 28 114 22 14 23 13 18 -14 -34 -207 -46 -296 -42 -301 10 -9 88 8
92 20 2 7 15 55 30 107 14 52 33 102 41 110 12 12 14 1 14 -89 0 -56 5 -111
10 -122 14 -25 50 -24 100 1 43 22 40 13 44 143 1 19 -3 22 -30 19 -51 -5 -59
15 -44 106 14 86 5 122 -29 122 -21 0 -65 -47 -78 -82 -6 -19 -9 -14 -13 27
-4 45 -8 50 -30 51 -14 1 -35 0 -48 -3z m-127 -215 c-7 -44 -20 -67 -31 -56
-12 12 8 98 23 98 12 0 13 -9 8 -42z"/>
<path d="M1724 1526 c-47 -15 -130 -71 -139 -93 -5 -16 5 -203 12 -203 2 0 17
15 32 33 16 17 43 40 60 50 l31 18 0 -24 c0 -13 -7 -75 -15 -138 -22 -163 -31
-359 -17 -359 19 0 82 61 143 137 163 205 208 449 101 546 -48 43 -133 56
-208 33z m106 -203 c35 -44 25 -130 -25 -229 -48 -94 -51 -86 -36 85 18 186
21 194 61 144z"/>
<path d="M966 1424 c-55 -20 -74 -40 -80 -82 -3 -21 -11 -77 -17 -127 -7 -49
-17 -93 -23 -97 -6 -4 -24 -8 -39 -8 -28 0 -29 2 -23 38 16 101 26 211 20 225
-8 21 -30 25 -79 15 -77 -16 -92 -54 -119 -308 -22 -200 -29 -352 -17 -370 15
-22 135 -20 157 1 12 13 17 48 23 147 4 72 9 133 11 135 3 2 18 7 34 11 25 6
28 5 21 -11 -10 -26 -19 -236 -11 -267 4 -16 15 -28 30 -32 33 -8 104 13 110
34 3 9 12 76 21 147 8 72 24 194 35 272 12 78 22 175 23 215 2 83 -5 89 -77
62z"/>
<path d="M1422 1234 c-12 -8 -31 -32 -42 -52 l-19 -37 -1 33 c0 37 -18 49 -49
33 -14 -8 -29 -39 -47 -99 -27 -87 -47 -101 -24 -16 15 52 5 70 -31 58 -13 -4
-34 -8 -46 -8 -58 -3 -105 -89 -111 -203 -4 -71 -2 -84 12 -89 23 -9 62 29 78
75 l13 36 5 -50 c4 -42 9 -51 27 -53 15 -2 28 7 47 34 l25 37 3 -44 c3 -42 4
-44 33 -41 41 4 61 31 69 94 17 128 46 184 46 88 0 -27 5 -72 11 -99 18 -84
84 -116 144 -69 50 39 121 231 93 249 -7 5 -19 7 -26 4 -8 -3 -22 -5 -31 -5
-10 0 -35 -14 -56 -30 -55 -44 -68 -29 -60 67 10 97 -10 124 -63 87z m-262
-164 c0 -21 -31 -71 -41 -65 -5 4 -8 9 -6 13 26 58 47 80 47 52z"/>
<path d="M314 1216 c-73 -33 -99 -105 -90 -249 l6 -98 -64 -30 c-35 -16 -86
-32 -115 -36 -28 -3 -51 -10 -51 -14 0 -20 109 6 181 41 l55 28 27 -86 c15
-48 44 -118 65 -157 31 -58 49 -77 101 -112 91 -62 182 -88 306 -87 116 0 195
18 335 77 206 86 259 101 351 102 79 0 91 -3 162 -38 66 -33 97 -59 235 -197
92 -93 166 -160 177 -160 14 0 10 6 -16 25 -19 14 -97 89 -174 168 -173 176
-227 208 -361 215 -102 5 -133 -2 -324 -80 -80 -33 -181 -68 -225 -79 -96 -23
-219 -25 -298 -4 -60 16 -158 62 -193 92 -47 41 -99 144 -134 267 l-16 59 66
66 c103 104 161 243 115 281 -22 18 -87 22 -121 6z m110 -22 c9 -8 16 -24 16
-33 0 -37 -73 -162 -126 -218 -50 -52 -56 -56 -66 -40 -14 26 -14 175 1 219
18 54 62 88 116 88 26 0 50 -6 59 -16z"/>
<path d="M603 95 c0 -27 2 -38 4 -22 2 15 8 27 13 27 5 0 11 -12 13 -27 4 -26
4 -26 6 5 1 22 -4 32 -13 32 -8 0 -17 8 -19 18 -3 9 -5 -5 -4 -33z"/>
<path d="M1102 95 c0 -27 2 -43 5 -35 3 8 13 24 22 35 15 18 15 19 -1 7 -14
-12 -17 -10 -21 15 -2 16 -4 6 -5 -22z"/>
<path d="M720 120 c-4 -25 1 -54 10 -63 4 -5 5 3 3 17 -4 19 -1 26 11 26 9 0
16 -8 16 -19 0 -11 4 -22 9 -25 5 -4 7 3 4 15 -3 12 -1 24 4 28 7 4 6 11 -3
19 -8 7 -14 8 -14 2 0 -14 -27 -13 -33 3 -4 8 -6 8 -7 -3z"/>
<path d="M949 118 c-2 -25 3 -53 11 -62 5 -5 6 1 3 14 -3 12 -1 25 4 29 7 4 6
11 -3 19 -11 10 -14 10 -15 0z"/>
<path d="M1500 125 c-1 -5 -1 -21 0 -34 1 -13 -4 -28 -12 -32 -9 -6 -3 -9 17
-9 17 0 25 4 18 8 -6 4 -13 23 -16 42 -2 19 -5 31 -7 25z"/>
<path d="M1547 123 c-3 -5 -4 -21 -3 -38 1 -23 6 -30 21 -30 11 0 20 6 19 13
-1 6 -2 23 -2 37 -2 23 -25 35 -35 18z m23 -13 c0 -5 -4 -10 -10 -10 -5 0 -10
5 -10 10 0 6 5 10 10 10 6 0 10 -4 10 -10z m2 -35 c0 -5 -5 -11 -11 -13 -6 -2
-11 4 -11 13 0 9 5 15 11 13 6 -2 11 -8 11 -13z"/>
<path d="M1605 120 c-3 -5 0 -7 8 -4 24 9 28 -12 7 -31 -27 -25 -25 -35 8 -34
21 0 23 2 9 7 -15 7 -16 10 -3 27 7 10 12 25 9 32 -6 15 -29 17 -38 3z"/>
<path d="M1670 106 c-15 -29 -8 -56 15 -56 23 0 31 31 12 45 -12 9 -14 14 -5
23 7 7 8 12 2 12 -6 0 -16 -11 -24 -24z m22 -31 c0 -5 -5 -11 -11 -13 -6 -2
-11 4 -11 13 0 9 5 15 11 13 6 -2 11 -8 11 -13z"/>
<path d="M1727 123 c-11 -11 -8 -43 4 -43 6 0 9 -7 5 -15 -9 -25 3 -17 17 13
8 15 12 33 10 40 -5 13 -25 16 -36 5z m25 -18 c0 -5 -5 -11 -11 -13 -6 -2 -11
4 -11 13 0 9 5 15 11 13 6 -2 11 -8 11 -13z"/>
<path d="M1790 106 c-15 -29 -8 -56 15 -56 23 0 31 31 12 45 -12 9 -14 14 -5
23 7 7 8 12 2 12 -6 0 -16 -11 -24 -24z m22 -31 c0 -5 -5 -11 -11 -13 -6 -2
-11 4 -11 13 0 9 5 15 11 13 6 -2 11 -8 11 -13z"/>
<path d="M1844 115 c-4 -8 -1 -22 6 -30 6 -8 9 -19 5 -25 -13 -22 4 -9 19 14
17 27 12 56 -10 56 -8 0 -17 -7 -20 -15z m28 -10 c0 -5 -5 -11 -11 -13 -6 -2
-11 4 -11 13 0 9 5 15 11 13 6 -2 11 -8 11 -13z"/>
<path d="M1904 115 c-4 -8 -1 -22 6 -30 6 -8 9 -19 5 -25 -3 -5 -4 -10 -1 -10
10 0 33 55 29 68 -6 17 -32 15 -39 -3z m28 -10 c0 -5 -5 -11 -11 -13 -6 -2
-11 4 -11 13 0 9 5 15 11 13 6 -2 11 -8 11 -13z"/>
<path d="M1965 120 c-4 -6 1 -7 11 -3 13 5 16 3 11 -10 -3 -9 -2 -19 4 -22 14
-9 -1 -27 -18 -21 -8 3 -11 1 -8 -4 8 -14 32 -13 37 2 13 39 -18 88 -37 58z"/>
<path d="M2025 120 c-4 -6 1 -7 11 -3 13 5 16 3 11 -10 -3 -9 -2 -19 4 -22 14
-9 -1 -27 -18 -21 -8 3 -11 1 -8 -4 8 -14 32 -13 37 2 13 39 -18 88 -37 58z"/>
<path d="M550 93 c0 -10 4 -14 8 -8 4 6 11 13 16 18 5 4 2 7 -7 7 -10 0 -17
-8 -17 -17z"/>
<path d="M661 83 c-1 -27 3 -33 19 -33 16 0 20 6 19 33 -2 30 -2 30 -6 5 -6
-36 -20 -36 -26 0 -4 25 -4 25 -6 -5z"/>
<path d="M807 104 c-13 -13 -7 -24 14 -24 11 0 19 5 17 12 -5 14 -22 21 -31
12z"/>
<path d="M861 78 c2 -28 2 -29 6 -8 3 14 10 28 17 32 7 5 5 8 -6 8 -14 0 -18
-8 -17 -32z"/>
<path d="M900 93 c0 -10 4 -14 8 -8 4 6 11 13 16 18 5 4 2 7 -7 7 -10 0 -17
-8 -17 -17z"/>
<path d="M994 95 c-8 -21 2 -45 20 -45 19 0 29 29 15 46 -15 18 -28 18 -35 -1z
m31 -15 c0 -7 -6 -15 -12 -17 -8 -3 -13 4 -13 17 0 13 5 20 13 18 6 -3 12 -11
12 -18z"/>
<path d="M1054 95 c-8 -20 2 -45 18 -44 10 0 10 2 1 6 -7 2 -13 13 -13 23 0
10 6 21 13 23 9 4 9 6 -1 6 -7 1 -15 -6 -18 -14z"/>
<path d="M1194 95 c-8 -20 2 -45 18 -44 10 0 10 2 1 6 -7 2 -13 13 -13 23 0
10 6 21 13 23 9 4 9 6 -1 6 -7 1 -15 -6 -18 -14z"/>
<path d="M1244 95 c-8 -21 2 -45 20 -45 7 0 16 7 20 15 8 21 -3 45 -20 45 -8
0 -17 -7 -20 -15z m31 -15 c0 -7 -6 -15 -12 -17 -8 -3 -13 4 -13 17 0 13 5 20
13 18 6 -3 12 -11 12 -18z"/>
<path d="M1301 77 c2 -31 2 -31 6 -4 2 15 8 27 13 27 5 0 11 -12 13 -27 l4
-28 2 28 c0 15 5 27 10 27 5 0 12 -12 14 -27 4 -27 4 -27 6 4 1 29 -1 31 -34
31 -33 0 -35 -2 -34 -31z"/>
<path d="M562 65 c-11 -12 -10 -15 3 -15 8 0 15 7 15 15 0 18 -2 18 -18 0z"/>
<path d="M912 65 c-11 -12 -10 -15 3 -15 8 0 15 7 15 15 0 18 -2 18 -18 0z"/>
<path d="M1120 71 c0 -5 5 -13 10 -16 6 -3 10 -2 10 4 0 5 -4 13 -10 16 -5 3
-10 2 -10 -4z"/>
<path d="M808 58 c5 -5 16 -8 23 -6 8 3 3 7 -10 11 -17 4 -21 3 -13 -5z"/>
</g>
</svg>
